# xmcd
#
# Track frame offsets:
#	150
#	19153
#	36037
#	50858
#	77764
#	92951
#	114372
#	127925
#	147050
#	162303
#	178334
#	194074
#	217277
#	231939
#
# Disc length: 3374 seconds
#
# Revision: 1
# Processed by: cddbd v1.5.2PL0 Copyright (c) Steve Scherf et al.
# Submitted via: audiograbber 1.83.01
#
DISCID=cf0d2c0e
DTITLE=Various Artist - The many faces of the Rolling Stones [CD 1)
DYEAR=2015
DGENRE=Blues
TTITLE0=Leslie West ft. Mick Jagger - High roller
TTITLE1=Ron Wood&Ian McLagan - She stole it
TTITLE2=Billy Wyman - Monkey grip (single edit)
TTITLE3=Keith Richards&Ian McLagan - Truly
TTITLE4=Toots&the Maytals ft. Keith Richards - Careless Ethopians
TTITLE5=Ron Wood&the Jones Gang - Had me a real good time
TTITLE6=Ian Mc Lagan ft. Bobby Keys - Somebody
TTITLE7=British Invasion All-Stars ft. Dick Taylor - Gimme some loving
TTITLE8=Billy Wyman - (Si si) Je suis un rock star (single edit)
TTITLE9=Robin Millar ft. Mick Taylor - Catch as catch can
TTITLE10=John Phillips ft. Mick Jagger,MIck Taylor&Keith Richards - Zulu Warrio
TTITLE10=r
TTITLE11=Ron Wood&the Jones Gang - Stay with me
TTITLE12=Chris Farlowe - Out of time
TTITLE13=Johnny Winter - Jumpin' Jack Flash
EXTD=
EXTT0=
EXTT1=
EXTT2=
EXTT3=
EXTT4=
EXTT5=
EXTT6=
EXTT7=
EXTT8=
EXTT9=
EXTT10=
EXTT11=
EXTT12=
EXTT13=
PLAYORDER=
